<?xml version="1.0" standalone="no"?>
<!DOCTYPE svg PUBLIC "-//W3C//DTD SVG 20010904//EN"
 "http://www.w3.org/TR/2001/REC-SVG-20010904/DTD/svg10.dtd">
<svg version="1.0" xmlns="http://www.w3.org/2000/svg"
 width="272.000000pt" height="272.000000pt" viewBox="0 0 272.000000 272.000000"
 preserveAspectRatio="xMidYMid meet">

<g transform="translate(0.000000,272.000000) scale(0.100000,-0.100000)"
fill="#000000" stroke="none">
<path d="M0 1360 l0 -1360 1360 0 1360 0 0 1360 0 1360 -1360 0 -1360 0 0
-1360z m1497 698 c80 -63 174 -105 265 -119 87 -13 114 -25 142 -62 20 -27 21
-40 21 -300 0 -296 -5 -335 -56 -442 -57 -118 -164 -215 -328 -296 -123 -60
-161 -67 -232 -39 -144 56 -223 104 -305 185 -95 95 -138 173 -159 291 -18
102 -20 519 -3 577 14 45 55 77 103 78 96 2 216 52 323 134 31 24 66 45 77 48
44 10 91 -7 152 -55z"/>
<path d="M1315 1960 c-79 -63 -199 -117 -290 -132 l-80 -13 -3 -215 c-3 -301
15 -387 105 -498 47 -57 126 -114 225 -162 90 -44 118 -48 169 -24 19 9 53 26
76 37 63 30 174 118 206 163 79 112 86 149 87 443 1 132 -1 245 -5 250 -3 6
-27 13 -53 16 -105 14 -210 60 -305 131 -31 24 -63 44 -70 44 -6 0 -34 -18
-62 -40z m292 -359 c27 -35 13 -56 -126 -193 -103 -103 -144 -138 -163 -138
-18 0 -46 22 -101 79 -42 43 -77 83 -77 89 0 6 4 22 10 36 15 41 60 35 114
-14 24 -22 49 -40 57 -40 7 0 61 48 120 106 93 91 111 105 131 98 13 -4 28
-14 35 -23z"/>
</g>
</svg>
